# xmcd CD database file generated by LOLA_Freedb v0.9beta0
#
# Track frame offsets:
#      150
#      20387
#      38687
#      56093
#      67398
#      90320
#      110442
#      152451
#      164277
#
# Disc length: 2441 seconds
#
# Revision: 0
# Processed by: cddbd v1.5.2PL0 Copyright (c) Steve Scherf et al.
# Submitted via: LOLA_Freedb v0.9beta0
#
DISCID=6a098709
DTITLE=John Mayall - Lo Mejor de John Mayall
DYEAR=1976
DGENRE=
TTITLE0=John Mayall - Roon To Move
TTITLE1=John Mayall - Took The Car
TTITLE2=John Mayall - Change Your Ways
TTITLE3=John Mayall - Thinking Of My Woman
TTITLE4=John Mayall - Deep Blue Sea
TTITLE5=John Mayall - Moving On
TTITLE6=John Mayall - California
TTITLE7=John Mayall - Plan Your Revolution
TTITLE8=John Mayall - Prisons On The Road
EXTD=
EXTT0=
EXTT1=
EXTT2=
EXTT3=
EXTT4=
EXTT5=
EXTT6=
EXTT7=
EXTT8=
PLAYORDER=
